<svg xmlns="http://www.w3.org/2000/svg" xmlns:xlink="http://www.w3.org/1999/xlink" version="1.1" width="256" height="256" viewBox="0 0 256 256" xml:space="preserve">

<defs>
</defs>
<g style="stroke: none; stroke-width: 0; stroke-dasharray: none; stroke-linecap: butt; stroke-linejoin: miter; stroke-miterlimit: 10; fill: none; fill-rule: nonzero; opacity: 1;" transform="translate(1.4065934065934016 1.4065934065934016) scale(2.81 2.81)" >
	<path d="M 70.715 43.872 c 2.42 -4.32 3.773 -9.253 3.773 -14.383 c 0 -8.117 -3.397 -15.958 -9.321 -21.513 c -6.006 -5.633 -13.86 -8.442 -22.113 -7.912 C 28.366 1.008 16.554 12.793 15.579 27.477 c -0.397 5.983 0.989 11.715 3.788 16.629 L 32.14 76.961 v 6.526 c 0 3.591 2.921 6.513 6.513 6.513 h 12.694 c 3.592 0 6.514 -2.922 6.514 -6.513 V 76.96 l 12.848 -33.049 C 70.713 43.898 70.71 43.885 70.715 43.872 z M 33.824 75.774 L 23.813 50.022 c 2.491 2.556 5.474 4.696 8.879 6.262 c 3.75 1.725 6.173 5.446 6.173 9.482 v 1 l 12.27 -0.001 v -1 c 0 -4.042 2.408 -7.756 6.134 -9.463 c 3.421 -1.567 6.436 -3.756 8.959 -6.382 l -10.05 25.854 H 33.824 z M 17.574 27.61 C 18.484 13.924 29.492 2.939 43.182 2.059 c 7.706 -0.493 15.019 2.125 20.617 7.375 c 5.603 5.255 8.689 12.377 8.689 20.055 c 0 10.718 -6.301 20.529 -16.052 24.995 c -4.127 1.891 -6.895 5.855 -7.261 10.282 h -8.352 c -0.367 -4.421 -3.149 -8.393 -7.296 -10.299 c -5.337 -2.454 -9.572 -6.408 -12.347 -11.216 l -0.025 -0.065 c -0.016 -0.04 -0.047 -0.068 -0.067 -0.104 C 18.491 38.508 17.205 33.175 17.574 27.61 z M 55.86 83.487 c 0 2.488 -2.024 4.513 -4.514 4.513 H 38.653 c -2.488 0 -4.513 -2.024 -4.513 -4.513 v -5.714 h 21.72 V 83.487 z" style="stroke: none; stroke-width: 1; stroke-dasharray: none; stroke-linecap: butt; stroke-linejoin: miter; stroke-miterlimit: 10; fill: rgb(0,0,0); fill-rule: nonzero; opacity: 1;" transform=" matrix(1 0 0 1 0 0) " stroke-linecap="round" />
	<path d="M 26.178 30.516 c -0.022 0 -0.045 0 -0.067 -0.002 c -0.551 -0.036 -0.968 -0.513 -0.932 -1.064 c 0.657 -9.893 8.615 -17.833 18.511 -18.469 c 0.546 -0.028 1.026 0.383 1.062 0.934 c 0.035 0.551 -0.383 1.026 -0.934 1.062 c -8.897 0.572 -16.052 7.71 -16.642 16.606 C 27.14 30.11 26.7 30.516 26.178 30.516 z" style="stroke: none; stroke-width: 1; stroke-dasharray: none; stroke-linecap: butt; stroke-linejoin: miter; stroke-miterlimit: 10; fill: rgb(0,0,0); fill-rule: nonzero; opacity: 1;" transform=" matrix(1 0 0 1 0 0) " stroke-linecap="round" />
</g>
</svg>